# xmcd CD database file generated by OrangeCD 4.3
#
# Track frame offsets:
#	150
#	21015
#	43227
#	68142
#	84400
#	103403
#	117497
#	133081
#	151044
#	166328
#	186518
#	203184
#	220816
#	236889
#
# Disc length: 3387 seconds
#
# Revision: 0
# Processed by: cddbd v1.4PL0 Copyright (c) Steve Scherf et al.
# Submitted via: OrangeCD 4.3
#
DISCID=cc0d390e
DTITLE=Anna Owens - Demos
DYEAR=2003
DGENRE=Country
TTITLE0=Beautiful
TTITLE1=I'll Be
TTITLE2=At Last
TTITLE3=All In Your Heart
TTITLE4=I Can't Say
TTITLE5=Whatcha Gonna Do
TTITLE6=Every Time
TTITLE7=Forever The One
TTITLE8=Nobody
TTITLE9=How Do I Say Goodbye
TTITLE10=They Deserve Each Other
TTITLE11=Devoted To A Lie
TTITLE12=Tonight
TTITLE13=I Will Never Leave Your Love Behind
EXTD=
EXTT0=
EXTT1=
EXTT2=
EXTT3=
EXTT4=
EXTT5=
EXTT6=
EXTT7=
EXTT8=
EXTT9=
EXTT10=
EXTT11=
EXTT12=
EXTT13=
PLAYORDER=
